<svg width="80" height="81" fill="none" xmlns="http://www.w3.org/2000/svg"><circle cx="37.3" cy="43" r="36.6" fill="#FFF2EA"/><path fill-rule="evenodd" clip-rule="evenodd" d="M34.6 73.8a1 1 0 1 1-.4 2A37.6 37.6 0 1 1 73.8 58a1 1 0 1 1-1.8-1 35.6 35.6 0 1 0-37.4 16.8Z" fill="#FF6000"/><path d="M26.8 38.5h-.2l-2.8-1.2a.6.6 0 0 1-.3-.5v-4.9a.5.5 0 0 1 .2-.4l.3-.1h.3l2.7 1.2a.6.6 0 0 1 .4.5V38a.5.5 0 0 1-.3.4l-.3.1" fill="#FF5100"/><path d="m24 32 2.8 1.1V38L24 36.8v-4.9Zm0-1.2a1.1 1.1 0 0 0-1 1.1v4.9a1.1 1.1 0 0 0 .6 1l2.8 1.2a1.1 1.1 0 0 0 1.5-1V33a1.1 1.1 0 0 0-.7-1L24.5 31H24" fill="#fff"/><path d="M23.3 30.6h-.2l-5.5-2.4a.6.6 0 0 1-.3-.5.5.5 0 0 1 .3-.6l20.1-8.6h.5l5.5 2.4a.6.6 0 0 1 .3.5.5.5 0 0 1-.3.5l-20.1 8.6h-.3Z" fill="#FF6000"/><path d="m38 19 5.5 2.4L23.3 30l-5.5-2.3L38 19Zm0-1h-.5l-20.1 8.6a1.1 1.1 0 0 0-.5 1.7l.5.4 5.5 2.3a1.1 1.1 0 0 0 .9 0l20.1-8.6a1.1 1.1 0 0 0 .7-1 1.1 1.1 0 0 0-.7-1L38.4 18a1 1 0 0 0-.5 0" fill="#fff"/><path d="M27.7 32.4h-.3l-2.4-1a.6.6 0 0 1-.2-.9l.2-.2 20.1-8.6a.6.6 0 0 1 .5 0l2.4 1a.6.6 0 0 1 .3.6.5.5 0 0 1-.3.5l-20.1 8.6h-.2" fill="#FF6000"/><path d="m45.4 22.2 2.4 1L27.7 32l-2.5-1 20.2-8.7Zm0-1a1 1 0 0 0-.5 0l-20.1 8.6a1.1 1.1 0 0 0-.5 1.6c.1.2.3.4.5.4l2.4 1a1.1 1.1 0 0 0 .9 0l20.1-8.5a1.1 1.1 0 0 0 .7-1 1.1 1.1 0 0 0-.7-1l-2.4-1a1 1 0 0 0-.4-.2Z" fill="#fff"/><path d="M38 36.8h-.3l-8.4-3.6a.6.6 0 0 1-.2-.8l.2-.2 20.2-8.6a.6.6 0 0 1 .4 0l8.4 3.5a.6.6 0 0 1 .2.9l-.2.2-20.1 8.6h-.3Z" fill="#FF6000"/><path d="m49.7 24 7.2 3.2a.5.5 0 0 1 .3.7l-.3.2-19 8.2-8.3-3.6 20-8.6Zm0-1h-.5l-20 8.7a1.1 1.1 0 0 0-.6 1.6l.5.4 8.4 3.6a1.1 1.1 0 0 0 .9 0l20.1-8.6a1.1 1.1 0 0 0 .7-1 1.1 1.1 0 0 0-.7-1L50.1 23l-.4-.1Z" fill="#fff"/><path d="M38.7 63.5a.6.6 0 0 1-.5-.3V37.6a.5.5 0 0 1 .3-.5L59 28.3a.6.6 0 0 1 .6.1l.2.4v25.4a.5.5 0 0 1-.4.5L39 63.5h-.2" fill="#FF6000"/><path d="M59.2 29.2v25l-20.5 8.7V37.6L58.8 29l.4.2Zm0-1.5h-.4l-20.5 8.9a1.1 1.1 0 0 0-.7 1v25.3a1.1 1.1 0 0 0 1 1.1h.5l20.5-8.8a1.1 1.1 0 0 0 .7-1V28.8a1.1 1.1 0 0 0-1.1-1.1Z" fill="#fff"/><path d="M37.2 63.5H37l-20.5-8.8a.6.6 0 0 1-.4-.5V28.8a.6.6 0 0 1 .6-.6h.2l5.9 2.6a.6.6 0 0 1 .3.5v6a.2.2 0 0 0 .1.1l4.3 1.9h.2a.2.2 0 0 0 0-.2v-5.3a.5.5 0 0 1 .3-.5h.5l9 3.8a.5.5 0 0 1 .3.5v25.3a.5.5 0 0 1-.3.5h-.3" fill="#FF6000"/><path d="m16.7 28.8 5.8 2.5v6a.7.7 0 0 0 .5.6l4.3 1.9a.8.8 0 0 0 1-.7v-5.3l8.9 3.8v25.3l-20.5-8.7V28.8Zm0-1.1a1.1 1.1 0 0 0-1 .7l-.1.4v25.4a1.1 1.1 0 0 0 .7 1L36.8 64a1.1 1.1 0 0 0 1.5-1V37.5a1.1 1.1 0 0 0-.7-1l-8.9-3.9a1.1 1.1 0 0 0-1.5 1v4.9L23.7 37v-5.7a1.1 1.1 0 0 0-.7-1L17 27.8l-.4-.1" fill="#fff"/><path d="M59.2 38.2c3.4 0 3.4-5.3 0-5.3s-3.4 5.3 0 5.3Z" fill="#FF6000"/><path d="M56.7 27.6c1 1.3 2.7 3.1 3 6.8.1 1.5 0 3-.4 4.3-.7 2.3-1.8 3.2-3.2 4.8-4 4.7-12.9 5.8-19.5 1.7l4.3-3.7-20.5-1.9 3.2 17 6-5.2c11.6 6.8 26.4 4 32.1-4.2 1.4-1.8 2.2-4 2.3-6.3.4-4.7-2.3-9.7-7.3-13.2" fill="#fff"/><path d="M57 27.4c.9 1.3 2.7 3.2 3 7a12.5 12.5 0 0 1-.4 4.5c-.7 2.3-2 3.3-3.2 4.9A14 14 0 0 1 45.7 48a17.7 17.7 0 0 1-9.4-2.7.3.3 0 0 1 0-.4l3.7-3.2L21 40l3 15.9 5.4-4.8h.4c4.3 2.4 9.1 3.8 14 3.8 7.5 0 14.3-3 17.7-7.9a12 12 0 0 0 2.3-6.9c0-4.4-2.5-8.9-7.2-12.2l.4-.6c4.8 3.4 7.5 8.2 7.5 12.8v.9c-.2 2.3-1 4.5-2.4 6.4-3.6 5.1-10.6 8.1-18.2 8.1-5 0-10-1.3-14.4-3.9l.2-.3.2.3-6 5.2a.4.4 0 0 1-.5-.2l-3.2-17a.4.4 0 0 1 .2-.3h.2L40.9 41a.4.4 0 0 1 .3.3.3.3 0 0 1-.1.3l-4.3 3.8-.2-.3.2-.3a17 17 0 0 0 8.9 2.5c4.1 0 8-1.5 10.1-4 1.4-1.7 2.5-2.6 3.1-4.8a10.5 10.5 0 0 0 .4-4.1c-.3-3.7-2-5.4-3-6.7l.7-.4Z" fill="url(#a)"/><defs><linearGradient id="a" x1="54.5" y1="56.6" x2="25.5" y2="32.8" gradientUnits="userSpaceOnUse"><stop stop-color="#FF6800"/><stop offset="1" stop-color="#FF6000"/></linearGradient></defs></svg>