<svg width="80" height="81" fill="none" xmlns="http://www.w3.org/2000/svg"><g clip-path="url(#a)" fill-rule="evenodd" clip-rule="evenodd"><path d="M65 66.9V59c0-1-.8-1.9-1.8-1.9s-1.9.9-1.9 1.9v1.7a1.6 1.6 0 0 1-2.7 1.1 1.6 1.6 0 0 1-.5-1v-5.3c0-1-.8-1.8-1.9-1.8-1 0-1.8.8-1.8 1.8v3.5a1.6 1.6 0 0 1-2.8 1.1 1.6 1.6 0 0 1-.4-1.1v-7c0-1-.9-1.8-2-1.8-1 0-1.8.9-1.8 1.9V59a1.6 1.6 0 0 1-2.2 1.5 1.6 1.6 0 0 1-1-1.5V43.5c0-1-.8-1.8-1.9-1.8-1 0-1.9.8-1.9 1.8v23.1a1.6 1.6 0 0 1-1.9 1.6c-.3 0-.6-.2-.8-.5L33 63.1a1.9 1.9 0 0 0-3 2c0 .3.2.5.4.7l12 12L44 79A36.6 36.6 0 1 1 65 66.8Z" fill="#FFF2EA"/><path d="M34.6 73.8a1 1 0 1 1-.4 2A37.6 37.6 0 1 1 73.8 58a1 1 0 1 1-1.8-1 35.6 35.6 0 1 0-37.4 16.8Z" fill="#FF6000"/><path d="M36.6 46.2a1 1 0 1 1-1.1 1.6 10.6 10.6 0 0 1-4.5-8C30.5 34 35 29 41 28.6a10.8 10.8 0 0 1 11.4 12.8 1 1 0 0 1-2-.4c.2-.8.2-1.6.2-2.4a8.7 8.7 0 0 0-9.4-8 8.7 8.7 0 0 0-8.2 9.2c.2 2.6 1.5 5 3.6 6.5ZM27 17a1 1 0 1 1 1.8-1l5.3 9.6a1 1 0 1 1-1.8 1L26.9 17Zm-4.3 14a1 1 0 1 1 1-1.8l4.7 2.5a1 1 0 1 1-1 1.8L22.6 31Zm20-7a1 1 0 1 1-2-.3l.7-7.2a1 1 0 1 1 2 .2l-.7 7.3Z" fill="#FF6000"/><path d="M66.4 55.7c0-1-.8-1.9-1.8-1.9s-2 .9-2 1.9v1.7a1.6 1.6 0 0 1-2.1 1.5 1.6 1.6 0 0 1-1-1.5v-5.2c0-1-.9-1.8-1.9-1.8-1 0-1.9.8-1.9 1.8v3.5a1.6 1.6 0 0 1-1.6 1.6 1.6 1.6 0 0 1-1.6-1.6v-7c0-1-.8-1.8-1.9-1.8-1 0-1.8.9-1.8 1.9v7a1.6 1.6 0 0 1-2.3 1.4 1.6 1.6 0 0 1-1-1.5V40.2c0-1-.8-2-1.8-2s-2 1-2 2v23a1.6 1.6 0 0 1-1.8 1.6c-.3 0-.6-.2-.8-.4l-4.7-4.7a1.9 1.9 0 0 0-3 2c0 .3.2.5.3.7l12.1 12a13.2 13.2 0 0 0 22.5-7.7l.1-.8V55.7ZM53.2 80.3c-4 0-8-1.6-10.8-4.5l-12-12a3.9 3.9 0 0 1 2.7-6.7c1 0 2 .4 2.7 1.2l4 3.9v-22a4 4 0 0 1 7.8 0v6.1a4 4 0 0 1 7 2.5v1a4 4 0 0 1 7 2.4v1a4 4 0 0 1 6.9 2.5v12.1h-.3a15.2 15.2 0 0 1-15 12.5Z" fill="#FF6000"/></g><defs><clipPath id="a"><path fill="#fff" transform="translate(0 .3)" d="M0 0h80v80.7H0z"/></clipPath></defs></svg>