<svg width="80" height="82" viewBox="0 0 80 82" fill="none" xmlns="http://www.w3.org/2000/svg">
<ellipse cx="37.2881" cy="43.3729" rx="36.6102" ry="36.6102" fill="#FFF2EA"/>
<path fill-rule="evenodd" clip-rule="evenodd" d="M34.6196 74.1329C34.7508 74.1582 34.8757 74.209 34.9871 74.2826C35.0986 74.3561 35.1945 74.4509 35.2694 74.5615C35.3442 74.6721 35.3966 74.7964 35.4234 74.9273C35.4502 75.0581 35.451 75.1929 35.4257 75.3241C35.4004 75.4552 35.3496 75.5801 35.276 75.6916C35.2025 75.8031 35.1077 75.899 34.9971 75.9738C34.8865 76.0487 34.7622 76.101 34.6314 76.1278C34.5005 76.1547 34.3657 76.1555 34.2345 76.1302C17.6352 72.9315 5.0576 58.9471 3.86438 41.8658C2.41624 21.1695 18.0488 3.21699 38.779 1.76886C59.5078 0.319367 77.4874 15.9214 78.9349 36.6163C79.4791 44.2338 77.6754 51.8351 73.7667 58.396C73.6287 58.6277 73.4041 58.7951 73.1426 58.8614C72.8811 58.9276 72.6039 58.8873 72.3722 58.7492C72.1404 58.6111 71.973 58.3866 71.9067 58.125C71.8405 57.8635 71.8809 57.5864 72.019 57.3546C75.715 51.1505 77.4205 43.9626 76.9057 36.7593C75.5362 17.1844 58.5301 2.42716 38.9207 3.79733C19.3105 5.16818 4.52336 22.1492 5.8915 41.7241C7.02167 57.88 18.9186 71.1071 34.619 74.1329H34.6196Z" fill="#FF6000"/>
<g clip-path="url(#clip0_13097_6500)">
<path d="M55.4576 32.6951L56.4745 38.2069L53.3423 40.4442L52.0203 34.4035L44.3118 38.5934L48.5627 60.5798L64.4067 47.6849L61.6203 29.3188L55.4576 32.6951Z" fill="#FF6000"/>
<path d="M35.8102 36.6001C35.7288 36.5595 35.6678 36.5391 35.5864 36.5188L17.2203 30.8849C16.5491 30.6815 15.8576 31.0476 15.6542 31.7188C15.4508 32.39 15.8169 33.0815 16.4881 33.2849L29.5051 37.2713L30.3593 41.3595L23.6678 38.695C23.0169 38.4306 22.2847 38.7561 22.0407 39.3866C21.7763 40.0374 22.1017 40.7696 22.7322 41.0137L30.9491 44.2883L31.9051 48.9256L19.3356 41.8069C18.7254 41.4612 17.9729 41.6849 17.6271 42.2747C17.2814 42.8849 17.5051 43.6374 18.0949 43.9832L32.5559 52.1798L47.0983 60.4374L42.8271 38.7561L35.8102 36.6001Z" fill="#FF6000"/>
<path d="M34.6509 29.3594L32.9831 30.3967L24.8882 27.9153C24.2373 27.7119 23.5255 28.078 23.3221 28.7492C23.1187 29.4001 23.4848 30.1119 24.156 30.3153L30.156 32.1458L29.2 32.756L43.5187 37.2712L51.2068 32.939L34.6509 29.3594Z" fill="#FF6000"/>
<path d="M34.6915 26.3493L39.0848 27.1018L37.3763 28.0577L54.217 31.2306L60.4814 27.6306L42.5627 25.1289L42.5424 25.1493L35.1187 23.8679C34.4271 23.7459 33.7966 24.2137 33.6746 24.8848C33.5526 25.5764 34.0204 26.2272 34.6915 26.3493Z" fill="#FF6000"/>
</g>
<defs>
<clipPath id="clip0_13097_6500">
<rect width="48.8136" height="48.8135" fill="white" transform="translate(15.5932 16.9323)"/>
</clipPath>
</defs>
</svg>
