<?xml version="1.0" encoding="utf-8"?>
<!-- Generator: Adobe Illustrator 16.0.3, SVG Export Plug-In . SVG Version: 6.00 Build 0)  -->
<!DOCTYPE svg PUBLIC "-//W3C//DTD SVG 1.1//EN" "http://www.w3.org/Graphics/SVG/1.1/DTD/svg11.dtd">
<svg version="1.1" id="Capa_1" xmlns="http://www.w3.org/2000/svg" xmlns:xlink="http://www.w3.org/1999/xlink" x="0px" y="0px"
	 width="347.824px" height="470.586px" viewBox="79.381 0 347.824 470.586" enable-background="new 79.381 0 347.824 470.586"
	 xml:space="preserve">
<g>
	<path d="M352.15,308.932H146.364c-5.012,0-9.079,4.066-9.079,9.08c0,5.012,4.067,9.078,9.079,9.078H352.15
		c5.013,0,9.079-4.066,9.079-9.078C361.229,312.998,357.163,308.932,352.15,308.932z"/>
	<path d="M345.081,0H108.234C92.331,0,79.381,12.959,79.381,28.859v412.863c0,15.924,12.95,28.863,28.853,28.863H398.35
		c15.917,0,28.855-12.939,28.855-28.863V89.234L345.081,0z M351.891,43.185l35.996,39.121h-35.996V43.185z M402.972,441.723
		c0,2.543-2.081,4.629-4.635,4.629H108.234c-2.55,0-4.619-2.086-4.619-4.629V28.859c0-2.548,2.069-4.613,4.619-4.613h219.411v70.181
		c0,6.682,5.443,12.099,12.13,12.099h63.197V441.723z"/>
	<path d="M352.15,248.914H146.364c-5.012,0-9.079,4.066-9.079,9.08c0,5.012,4.067,9.078,9.079,9.078H352.15
		c5.013,0,9.079-4.066,9.079-9.078C361.229,252.98,357.163,248.914,352.15,248.914z"/>
	<path d="M137.285,137.969c0,5.013,4.067,9.079,9.079,9.079H352.15c5.013,0,9.079-4.066,9.079-9.079
		c0-5.013-4.066-9.079-9.079-9.079H146.364C141.352,128.891,137.285,132.958,137.285,137.969z"/>
	<path d="M352.15,189.901H146.364c-5.012,0-9.079,4.066-9.079,9.079s4.067,9.079,9.079,9.079H352.15
		c5.013,0,9.079-4.067,9.079-9.079S357.163,189.901,352.15,189.901z"/>
</g>
</svg>
