<svg width="84" height="80" fill="none" xmlns="http://www.w3.org/2000/svg"><g clip-path="url(#a)"><path d="M39.69 79.33c21.55 0 39.02-17.6 39.02-39.33C78.7 18.28 61.24.67 39.69.67 18.13.67.66 18.27.66 40c0 21.72 17.47 39.33 39.03 39.33Z" fill="#FFF2EA"/><path fill-rule="evenodd" clip-rule="evenodd" d="M65.69 7.51a1 1 0 0 1 .4-1.8c.25-.05.52.01.73.16A38.79 38.79 0 0 1 80.9 50.72a38.24 38.24 0 0 1-49.13 23.04c-19.9-7.3-30.18-29.45-22.95-49.48A38.33 38.33 0 0 1 22.66 6a.99.99 0 0 1 1.55.59 1.01 1.01 0 0 1-.4 1.04 36.34 36.34 0 0 0-13.12 17.33c-6.86 19 2.88 40 21.75 46.92a36.26 36.26 0 0 0 46.6-21.84A36.78 36.78 0 0 0 65.69 7.5Z" fill="#FF6000"/><path fill-rule="evenodd" clip-rule="evenodd" d="M28.44 22h1.32v1.33h-1.32V22Zm1.32 0h1.33v1.33h-1.33V22Zm1.33 0h1.32v1.33h-1.32V22Zm1.32 0h1.32v1.33h-1.32V22Zm1.32 0h1.33v1.33h-1.33V22Zm1.33 0h1.32v1.33h-1.32V22Zm1.32 0h1.32v1.33h-1.32V22Zm2.64 0h1.33v1.33h-1.33V22Zm2.65 0h1.32v1.33h-1.32V22Zm2.64 0h1.33v1.33H44.3V22Zm1.33 0h1.32v1.33h-1.32V22Zm3.97 0h1.32v1.33H49.6V22Zm2.64 0h1.32v1.33h-1.32V22Zm1.32 0h1.33v1.33h-1.33V22Zm1.33 0h1.32v1.33H54.9V22Zm1.32 0h1.32v1.33h-1.32V22Zm1.32 0h1.33v1.33h-1.33V22Zm1.33 0h1.32v1.33h-1.32V22Zm1.32 0h1.32v1.33H60.2V22Zm-31.75 1.33h1.32v1.34h-1.32v-1.34Zm7.94 0h1.32v1.34h-1.32v-1.34Zm3.97 0h1.32v1.34h-1.32v-1.34Zm1.32 0h1.32v1.34h-1.32v-1.34Zm1.32 0h1.32v1.34H43v-1.34Zm1.32 0h1.33v1.34H44.3v-1.34Zm2.65 0h1.32v1.34h-1.32v-1.34Zm5.3 0h1.31v1.34h-1.32v-1.34Zm7.93 0h1.32v1.34H60.2v-1.34Zm-31.75 1.34h1.32V26h-1.32v-1.33Zm2.65 0h1.32V26h-1.32v-1.33Zm1.32 0h1.32V26h-1.32v-1.33Zm1.32 0h1.33V26h-1.33v-1.33Zm2.65 0h1.32V26h-1.32v-1.33Zm2.64 0h1.33V26h-1.33v-1.33Zm1.33 0h1.32V26h-1.32v-1.33Zm1.32 0h1.32V26h-1.32v-1.33Zm3.97 0h1.32V26h-1.32v-1.33Zm1.32 0h1.32V26h-1.32v-1.33Zm5.3 0h1.31V26h-1.32v-1.33Zm2.64 0h1.32V26H54.9v-1.33Zm1.32 0h1.32V26h-1.32v-1.33Zm1.32 0h1.33V26h-1.33v-1.33Zm2.65 0h1.32V26H60.2v-1.33ZM28.44 26h1.32v1.33h-1.32V26Zm2.65 0h1.32v1.33h-1.32V26Zm1.32 0h1.32v1.33h-1.32V26Zm1.32 0h1.33v1.33h-1.33V26Zm2.65 0h1.32v1.33h-1.32V26Zm2.64 0h1.33v1.33h-1.33V26Zm1.33 0h1.32v1.33h-1.32V26Zm1.32 0h1.32v1.33h-1.32V26Zm2.64 0h1.33v1.33H44.3V26Zm1.33 0h1.32v1.33h-1.32V26Zm1.32 0h1.32v1.33h-1.32V26Zm1.32 0h1.33v1.33h-1.33V26Zm3.97 0h1.32v1.33h-1.32V26Zm2.65 0h1.32v1.33H54.9V26Zm1.32 0h1.32v1.33h-1.32V26Zm1.32 0h1.33v1.33h-1.33V26Zm2.65 0h1.32v1.33H60.2V26Zm-31.75 1.33h1.32v1.34h-1.32v-1.34Zm2.65 0h1.32v1.34h-1.32v-1.34Zm1.32 0h1.32v1.34h-1.32v-1.34Zm1.32 0h1.33v1.34h-1.33v-1.34Zm2.65 0h1.32v1.34h-1.32v-1.34Zm2.64 0h1.33v1.34h-1.33v-1.34Zm3.97 0h1.32v1.34H43v-1.34Zm1.32 0h1.33v1.34H44.3v-1.34Zm3.97 0h1.33v1.34h-1.33v-1.34Zm1.33 0h1.32v1.34H49.6v-1.34Zm2.64 0h1.32v1.34h-1.32v-1.34Zm2.65 0h1.32v1.34H54.9v-1.34Zm1.32 0h1.32v1.34h-1.32v-1.34Zm1.32 0h1.33v1.34h-1.33v-1.34Zm2.65 0h1.32v1.34H60.2v-1.34Zm-31.75 1.34h1.32V30h-1.32v-1.33Zm7.94 0h1.32V30h-1.32v-1.33Zm5.29 0h1.32V30h-1.32v-1.33Zm1.32 0h1.32V30H43v-1.33Zm6.62 0h1.32V30H49.6v-1.33Zm2.64 0h1.32V30h-1.32v-1.33Zm7.94 0h1.32V30H60.2v-1.33ZM28.44 30h1.32v1.33h-1.32V30Zm1.32 0h1.33v1.33h-1.33V30Zm1.33 0h1.32v1.33h-1.32V30Zm1.32 0h1.32v1.33h-1.32V30Zm1.32 0h1.33v1.33h-1.33V30Zm1.33 0h1.32v1.33h-1.32V30Zm1.32 0h1.32v1.33h-1.32V30Zm2.64 0h1.33v1.33h-1.33V30Zm2.65 0h1.32v1.33h-1.32V30Zm2.64 0h1.33v1.33H44.3V30Zm2.65 0h1.32v1.33h-1.32V30Zm2.65 0h1.32v1.33H49.6V30Zm2.64 0h1.32v1.33h-1.32V30Zm1.32 0h1.33v1.33h-1.33V30Zm1.33 0h1.32v1.33H54.9V30Zm1.32 0h1.32v1.33h-1.32V30Zm1.32 0h1.33v1.33h-1.33V30Zm1.33 0h1.32v1.33h-1.32V30Zm1.32 0h1.32v1.33H60.2V30Zm-18.52 1.33h1.32v1.34h-1.32v-1.34Zm2.64 0h1.33v1.34H44.3v-1.34Zm2.65 0h1.32v1.34h-1.32v-1.34Zm1.32 0h1.33v1.34h-1.33v-1.34Zm1.33 0h1.32v1.34H49.6v-1.34Zm-21.17 1.34h1.32V34h-1.32v-1.33Zm1.32 0h1.33V34h-1.33v-1.33Zm1.33 0h1.32V34h-1.32v-1.33Zm1.32 0h1.32V34h-1.32v-1.33Zm3.97 0h1.32V34h-1.32v-1.33Zm2.64 0h1.33V34h-1.33v-1.33Zm2.65 0h1.32V34h-1.32v-1.33Zm1.32 0h1.32V34H43v-1.33Zm1.32 0h1.33V34H44.3v-1.33Zm1.33 0h1.32V34h-1.32v-1.33Zm2.64 0h1.33V34h-1.33v-1.33Zm1.33 0h1.32V34H49.6v-1.33Zm1.32 0h1.32V34h-1.32v-1.33Zm3.97 0h1.32V34H54.9v-1.33Zm1.32 0h1.32V34h-1.32v-1.33Zm1.32 0h1.33V34h-1.33v-1.33Zm2.65 0h1.32V34H60.2v-1.33ZM29.76 34h1.33v1.33h-1.33V34Zm3.97 0h1.33v1.33h-1.33V34Zm7.94 0h1.32v1.33h-1.32V34Zm2.64 0h1.33v1.33H44.3V34Zm1.33 0h1.32v1.33h-1.32V34Zm3.97 0h1.32v1.33H49.6V34Zm1.32 0h1.32v1.33h-1.32V34Zm2.64 0h1.33v1.33h-1.33V34Zm5.3 0h1.32v1.33h-1.32V34Zm-30.43 1.33h1.32v1.34h-1.32v-1.34Zm1.32 0h1.33v1.34h-1.33v-1.34Zm3.97 0h1.33v1.34h-1.33v-1.34Zm1.33 0h1.32v1.34h-1.32v-1.34Zm1.32 0h1.32v1.34h-1.32v-1.34Zm1.32 0h1.32v1.34H37.7v-1.34Zm2.65 0h1.32v1.34h-1.32v-1.34Zm1.32 0h1.32v1.34h-1.32v-1.34Zm1.32 0h1.32v1.34H43v-1.34Zm1.32 0h1.33v1.34H44.3v-1.34Zm1.33 0h1.32v1.34h-1.32v-1.34Zm3.97 0h1.32v1.34H49.6v-1.34Zm1.32 0h1.32v1.34h-1.32v-1.34Zm3.97 0h1.32v1.34H54.9v-1.34Zm-23.81 1.34h1.32V38h-1.32v-1.33Zm1.32 0h1.32V38h-1.32v-1.33Zm1.32 0h1.33V38h-1.33v-1.33Zm6.62 0h1.32V38h-1.32v-1.33Zm1.32 0h1.32V38h-1.32v-1.33Zm7.94 0h1.32V38H49.6v-1.33Zm1.32 0h1.32V38h-1.32v-1.33Zm1.32 0h1.32V38h-1.32v-1.33Zm1.32 0h1.33V38h-1.33v-1.33Zm2.65 0h1.32V38h-1.32v-1.33Zm1.32 0h1.33V38h-1.33v-1.33ZM28.44 38h1.32v1.33h-1.32V38Zm2.65 0h1.32v1.33h-1.32V38Zm3.97 0h1.32v1.33h-1.32V38Zm1.32 0h1.32v1.33h-1.32V38Zm2.64 0h1.33v1.33h-1.33V38Zm1.33 0h1.32v1.33h-1.32V38Zm1.32 0h1.32v1.33h-1.32V38Zm2.64 0h1.33v1.33H44.3V38Zm2.65 0h1.32v1.33h-1.32V38Zm5.3 0h1.31v1.33h-1.32V38Zm1.31 0h1.33v1.33h-1.33V38Zm1.33 0h1.32v1.33H54.9V38Zm2.64 0h1.33v1.33h-1.33V38Zm1.33 0h1.32v1.33h-1.32V38Zm1.32 0h1.32v1.33H60.2V38ZM32.4 39.33h1.32v1.34h-1.32v-1.34Zm2.65 0h1.32v1.34h-1.32v-1.34Zm3.96 0h1.33v1.34h-1.33v-1.34Zm3.97 0h1.32v1.34H43v-1.34Zm1.32 0h1.33v1.34H44.3v-1.34Zm2.65 0h1.32v1.34h-1.32v-1.34Zm1.32 0h1.33v1.34h-1.33v-1.34Zm1.33 0h1.32v1.34H49.6v-1.34Zm1.32 0h1.32v1.34h-1.32v-1.34Zm1.32 0h1.32v1.34h-1.32v-1.34Zm1.32 0h1.33v1.34h-1.33v-1.34Zm1.33 0h1.32v1.34H54.9v-1.34Zm5.29 0h1.32v1.34H60.2v-1.34Zm-30.43 1.34h1.33V42h-1.33v-1.33Zm2.65 0h1.32V42h-1.32v-1.33Zm1.32 0h1.33V42h-1.33v-1.33Zm1.33 0h1.32V42h-1.32v-1.33Zm1.32 0h1.32V42h-1.32v-1.33Zm3.97 0h1.32V42h-1.32v-1.33Zm2.64 0h1.32V42H43v-1.33Zm2.65 0h1.32V42h-1.32v-1.33Zm5.29 0h1.32V42h-1.32v-1.33Zm1.32 0h1.32V42h-1.32v-1.33Zm1.32 0h1.33V42h-1.33v-1.33Zm3.97 0h1.33V42h-1.33v-1.33Zm1.33 0h1.32V42h-1.32v-1.33ZM28.44 42h1.32v1.33h-1.32V42Zm2.65 0h1.32v1.33h-1.32V42Zm2.64 0h1.33v1.33h-1.33V42Zm5.3 0h1.32v1.33h-1.33V42Zm3.96 0h1.32v1.33H43V42Zm3.97 0h1.32v1.33h-1.32V42Zm2.65 0h1.32v1.33H49.6V42Zm5.29 0h1.32v1.33H54.9V42Zm1.32 0h1.32v1.33h-1.32V42Zm3.97 0h1.32v1.33H60.2V42Zm-26.46 1.33h1.33v1.34h-1.33v-1.34Zm1.33 0h1.32v1.34h-1.32v-1.34Zm1.32 0h1.32v1.34h-1.32v-1.34Zm1.32 0h1.32v1.34H37.7v-1.34Zm1.32 0h1.33v1.34h-1.33v-1.34Zm5.3 0h1.32v1.34H44.3v-1.34Zm2.64 0h1.32v1.34h-1.32v-1.34Zm1.32 0h1.33v1.34h-1.33v-1.34Zm1.33 0h1.32v1.34H49.6v-1.34Zm1.32 0h1.32v1.34h-1.32v-1.34Zm1.32 0h1.32v1.34h-1.32v-1.34Zm1.32 0h1.33v1.34h-1.33v-1.34Zm1.33 0h1.32v1.34H54.9v-1.34Zm1.32 0h1.32v1.34h-1.32v-1.34Zm1.32 0h1.33v1.34h-1.33v-1.34Zm1.33 0h1.32v1.34h-1.32v-1.34Zm1.32 0h1.32v1.34H60.2v-1.34Zm-21.17 1.34h1.33V46h-1.33v-1.33Zm7.94 0h1.32V46h-1.32v-1.33Zm2.65 0h1.32V46H49.6v-1.33Zm5.29 0h1.32V46H54.9v-1.33Zm5.29 0h1.32V46H60.2v-1.33ZM28.44 46h1.32v1.33h-1.32V46Zm1.32 0h1.33v1.33h-1.33V46Zm1.33 0h1.32v1.33h-1.32V46Zm1.32 0h1.32v1.33h-1.32V46Zm1.32 0h1.33v1.33h-1.33V46Zm1.33 0h1.32v1.33h-1.32V46Zm1.32 0h1.32v1.33h-1.32V46Zm9.26 0h1.32v1.33h-1.32V46Zm1.32 0h1.32v1.33h-1.32V46Zm2.65 0h1.32v1.33H49.6V46Zm2.64 0h1.32v1.33h-1.32V46Zm2.65 0h1.32v1.33H54.9V46Zm1.32 0h1.32v1.33h-1.32V46Zm1.32 0h1.33v1.33h-1.33V46Zm1.33 0h1.32v1.33h-1.32V46Zm1.32 0h1.32v1.33H60.2V46Zm-31.75 1.33h1.32v1.34h-1.32v-1.34Zm7.94 0h1.32v1.34h-1.32v-1.34Zm3.97 0h1.32v1.34h-1.32v-1.34Zm2.64 0h1.32v1.34H43v-1.34Zm2.65 0h1.32v1.34h-1.32v-1.34Zm1.32 0h1.32v1.34h-1.32v-1.34Zm2.65 0h1.32v1.34H49.6v-1.34Zm5.29 0h1.32v1.34H54.9v-1.34Zm5.29 0h1.32v1.34H60.2v-1.34Zm-31.75 1.34h1.32V50h-1.32v-1.33Zm2.65 0h1.32V50h-1.32v-1.33Zm1.32 0h1.32V50h-1.32v-1.33Zm1.32 0h1.33V50h-1.33v-1.33Zm2.65 0h1.32V50h-1.32v-1.33Zm3.97 0h1.32V50h-1.32v-1.33Zm1.32 0h1.32V50h-1.32v-1.33Zm3.97 0h1.32V50h-1.32v-1.33Zm1.32 0h1.32V50h-1.32v-1.33Zm2.65 0h1.32V50H49.6v-1.33Zm1.32 0h1.32V50h-1.32v-1.33Zm1.32 0h1.32V50h-1.32v-1.33Zm1.32 0h1.33V50h-1.33v-1.33Zm1.33 0h1.32V50H54.9v-1.33ZM28.44 50h1.32v1.33h-1.32V50Zm2.65 0h1.32v1.33h-1.32V50Zm1.32 0h1.32v1.33h-1.32V50Zm1.32 0h1.33v1.33h-1.33V50Zm2.65 0h1.32v1.33h-1.32V50Zm2.64 0h1.33v1.33h-1.33V50Zm1.33 0h1.32v1.33h-1.32V50Zm10.58 0h1.32v1.33h-1.32V50Zm1.32 0h1.32v1.33h-1.32V50Zm2.65 0h1.32v1.33H54.9V50Zm2.64 0h1.33v1.33h-1.33V50Zm1.33 0h1.32v1.33h-1.32V50Zm1.32 0h1.32v1.33H60.2V50Zm-31.75 1.33h1.32v1.34h-1.32v-1.34Zm2.65 0h1.32v1.34h-1.32v-1.34Zm1.32 0h1.32v1.34h-1.32v-1.34Zm1.32 0h1.33v1.34h-1.33v-1.34Zm2.65 0h1.32v1.34h-1.32v-1.34Zm2.64 0h1.33v1.34h-1.33v-1.34Zm1.33 0h1.32v1.34h-1.32v-1.34Zm1.32 0h1.32v1.34h-1.32v-1.34Zm5.3 0h1.31v1.34h-1.32v-1.34Zm1.31 0h1.33v1.34h-1.33v-1.34Zm1.33 0h1.32v1.34H49.6v-1.34Zm1.32 0h1.32v1.34h-1.32v-1.34Zm1.32 0h1.32v1.34h-1.32v-1.34Zm1.32 0h1.33v1.34h-1.33v-1.34Zm1.33 0h1.32v1.34H54.9v-1.34Zm1.32 0h1.32v1.34h-1.32v-1.34Zm1.32 0h1.33v1.34h-1.33v-1.34Zm1.33 0h1.32v1.34h-1.32v-1.34Zm-30.43 1.34h1.32V54h-1.32v-1.33Zm7.94 0h1.32V54h-1.32v-1.33Zm2.64 0h1.33V54h-1.33v-1.33Zm1.33 0h1.32V54h-1.32v-1.33Zm1.32 0h1.32V54h-1.32v-1.33Zm1.32 0h1.32V54H43v-1.33Zm1.32 0h1.33V54H44.3v-1.33Zm1.33 0h1.32V54h-1.32v-1.33Zm1.32 0h1.32V54h-1.32v-1.33Zm5.3 0h1.31V54h-1.32v-1.33Zm2.64 0h1.32V54H54.9v-1.33Zm2.64 0h1.33V54h-1.33v-1.33ZM28.44 54h1.32v1.33h-1.32V54Zm1.32 0h1.33v1.33h-1.33V54Zm1.33 0h1.32v1.33h-1.32V54Zm1.32 0h1.32v1.33h-1.32V54Zm1.32 0h1.33v1.33h-1.33V54Zm1.33 0h1.32v1.33h-1.32V54Zm1.32 0h1.32v1.33h-1.32V54Zm2.64 0h1.33v1.33h-1.33V54Zm1.33 0h1.32v1.33h-1.32V54Zm2.64 0h1.32v1.33H43V54Zm7.94 0h1.32v1.33h-1.32V54Zm1.32 0h1.32v1.33h-1.32V54Zm1.32 0h1.33v1.33h-1.33V54Zm1.33 0h1.32v1.33H54.9V54Zm1.32 0h1.32v1.33h-1.32V54Zm1.32 0h1.33v1.33h-1.33V54Zm1.33 0h1.32v1.33h-1.32V54Zm1.32 0h1.32v1.33H60.2V54Z" fill="#FF6000"/></g><defs><clipPath id="a"><path fill="#fff" d="M0 0h84v80H0z"/></clipPath></defs></svg>